<?xml version="1.0" encoding="utf-8"?>
<!-- Generator: Adobe Illustrator 27.8.1, SVG Export Plug-In . SVG Version: 6.00 Build 0)  -->
<svg version="1.1" id="Layer_1" xmlns="http://www.w3.org/2000/svg" xmlns:xlink="http://www.w3.org/1999/xlink" x="0px" y="0px"
	 viewBox="0 0 347.8 100" style="enable-background:new 0 0 347.8 100;" xml:space="preserve">
<style type="text/css">
	.st0{display:none;fill:#FFFFFF;}
	.st1{fill:#FFFFFF;}
	.st2{fill:#1E1E2D;}
</style>
<rect x="81.3" y="12" class="st0" width="187" height="76"/>
<circle class="st1" cx="50" cy="50" r="50"/>
<path class="st2" d="M50,9c-10.8,0-21.2,4.4-29,12C13.4,28.6,9,39,9,50s4.4,21.2,12,29c7.6,7.6,18,12,29,12v-5.8
	c-9.4,0-18.2-3.8-24.8-10.4S14.8,59.4,14.8,50s3.8-18.2,10.4-24.8S40.8,14.8,50,14.8V9z"/>
<path class="st1" d="M147.8,48.2c-2.6,0-4.8-0.4-6.6-1.4c-2-1-3.4-2.4-4.4-4c-1-1.8-1.6-3.8-1.6-6V20.6c0-2.4,0.6-4.4,1.6-6
	c1-1.8,2.6-3,4.4-4c2-1,4.2-1.4,6.6-1.4c2.6,0,4.8,0.4,6.6,1.4c2,1,3.4,2.2,4.4,4s1.6,3.8,1.6,6h-7.8c0-1.6-0.4-2.6-1.4-3.6
	c-0.8-0.8-2-1.2-3.6-1.2s-2.8,0.4-3.6,1.2s-1.2,2-1.2,3.6v16.2c0,1.4,0.4,2.6,1.2,3.6c0.8,0.8,2,1.2,3.6,1.2s2.8-0.4,3.6-1.2
	s1.4-2,1.4-3.6h7.8c0,2.2-0.6,4.4-1.6,6c-1,1.8-2.6,3-4.4,4C152.6,47.8,150.2,48.2,147.8,48.2z M178.8,48.2c-2.6,0-4.8-0.4-6.6-1.4
	s-3.4-2.4-4.4-4c-1-1.8-1.6-3.8-1.6-6V30c0-2.2,0.6-4.4,1.6-6c1-1.8,2.6-3,4.4-4c1.8-1,4-1.4,6.6-1.4s4.8,0.4,6.6,1.4s3.4,2.2,4.4,4
	s1.6,3.8,1.6,6v6.8c0,2.2-0.6,4.4-1.6,6c-1,1.8-2.4,3-4.4,4C183.6,47.8,181.4,48.2,178.8,48.2z M178.8,41.4c1.6,0,2.6-0.4,3.6-1.2
	c0.8-0.8,1.2-2,1.2-3.6V30c0-1.6-0.4-2.6-1.2-3.6c-0.8-0.8-2-1.2-3.6-1.2c-1.4,0-2.6,0.4-3.6,1.2c-0.8,0.8-1.2,2-1.2,3.6v6.8
	c0,1.4,0.4,2.6,1.2,3.6C176.2,41,177.4,41.4,178.8,41.4z M198,47.8V19h7.6v5.4h2.2l-2.2,1.8c0-2.4,0.6-4.4,2-5.8
	c1.4-1.4,3.2-2,5.6-2c2.8,0,5,1,6.6,3c1.8,2,2.6,4.6,2.6,7.8v18.6h-7.8V30c0-1.4-0.4-2.6-1.2-3.4s-1.8-1.2-3.2-1.2s-2.4,0.4-3.2,1.2
	c-0.8,0.8-1.2,2-1.2,3.4v17.8H198z M244.6,47.8c-3,0-5.2-0.8-6.8-2.6c-1.6-1.6-2.6-4-2.6-6.8V26h-7.6v-7h7.6v-8h7.8v8h10.8v7H243
	v12.2c0,1.6,0.8,2.4,2.4,2.4h7.8v7h-8.6V47.8z M269.2,48.2c-2.8,0-5.2-0.8-6.8-2.4c-1.6-1.6-2.6-3.6-2.6-6.4c0-2.8,1-5.2,3-6.6
	c2-1.6,5-2.4,8.6-2.4h6v-2.2c0-1.2-0.4-2-1.2-2.6c-0.8-0.6-1.8-1-3.2-1c-1.2,0-2.2,0.2-3,0.8c-0.8,0.6-1.2,1.4-1.4,2.2H261
	c0.4-2.8,1.6-5.2,3.8-6.8c2.2-1.8,5-2.6,8.6-2.6s6.6,1,8.6,2.8c2.2,1.8,3.2,4.2,3.2,7.2v19.4h-7.6v-4.8h-1.2l1.4-1.8
	c0,2.2-0.8,3.8-2.4,5.2C273.8,47.6,271.6,48.2,269.2,48.2z M272,42.6c1.6,0,2.8-0.4,3.8-1.2s1.6-2,1.6-3.2v-3h-5.8
	c-1.2,0-2.2,0.4-2.8,1c-0.8,0.6-1,1.6-1,2.6c0,1.2,0.4,2.2,1.2,2.8C269.6,42.2,270.6,42.6,272,42.6z M304.4,48.2
	c-2.6,0-4.8-0.4-6.6-1.4c-2-1-3.4-2.4-4.4-4c-1-1.8-1.6-3.8-1.6-6V30c0-2.4,0.6-4.4,1.6-6c1-1.8,2.6-3,4.4-4c2-1,4.2-1.4,6.6-1.4
	c3.8,0,6.8,1,9,2.8c2.2,2,3.4,4.6,3.6,7.8h-7.8c-0.2-1.2-0.6-2.2-1.4-2.8c-0.8-0.6-2-1-3.4-1c-1.6,0-2.8,0.4-3.6,1.2
	c-0.8,0.8-1.2,2-1.2,3.6V37c0,1.4,0.4,2.6,1.2,3.6c0.8,0.8,2,1.2,3.6,1.2c1.4,0,2.6-0.4,3.4-1s1.4-1.6,1.4-3h7.8
	c-0.2,3.4-1.4,6-3.6,7.8C311.2,47.2,308.2,48.2,304.4,48.2z M338.6,47.8c-3,0-5.2-0.8-6.8-2.6c-1.6-1.6-2.6-4-2.6-6.8V26h-7.6v-7
	h7.6v-8h7.8v8h10.8v7H337v12.2c0,1.6,0.8,2.4,2.4,2.4h7.8v7h-8.6V47.8z M135.2,91V52.8h12.2c3.8,0,7,0.8,9.2,2.6s3.4,4.2,3.4,7.2
	c0,1.6-0.4,3.2-1.2,4.4c-0.8,1.2-1.8,2.2-3.2,3c-1.2,0.6-2.6,1-4.2,1v0.2c1.8,0,3.2,0.2,4.6,1c1.4,0.6,2.6,1.6,3.4,3
	c0.8,1.4,1.4,3,1.4,5c0,2.2-0.6,4.2-1.6,5.8c-1,1.6-2.6,3-4.4,3.8c-2,1-4.2,1.4-7,1.4h-12.6V91z M142.8,84.6h4.8c1.8,0,3-0.4,4-1.4
	s1.4-2.2,1.4-3.8c0-1.6-0.4-2.8-1.4-3.8s-2.4-1.4-4-1.4h-4.8V84.6z M142.8,68.2h4.6c1.6,0,2.8-0.4,3.6-1.2c0.8-0.8,1.4-2,1.4-3.4
	S152,61,151,60.4c-0.8-0.8-2-1.2-3.6-1.2h-4.6V68.2z M178.8,91.4c-3.8,0-6.8-1-9-3.2c-2.2-2-3.2-5-3.2-8.6V62h7.8v17.6
	c0,1.6,0.4,2.8,1.2,3.8c0.8,0.8,1.8,1.2,3.4,1.2c1.4,0,2.6-0.4,3.2-1.2c0.8-0.8,1.2-2.2,1.2-3.8V62h7.8v17.6c0,3.6-1,6.6-3.2,8.6
	C185.6,90.4,182.6,91.4,178.8,91.4z M213.2,91c-3,0-5.2-0.8-6.8-2.6c-1.6-1.6-2.6-4-2.6-6.8V69.4h-7.6v-7h7.6v-8h7.8v8h10.8v7h-10.8
	v12.2c0,1.6,0.8,2.4,2.4,2.4h7.8v7H213.2z M244.6,91c-3,0-5.2-0.8-6.8-2.6c-1.6-1.6-2.6-4-2.6-6.8V69.4h-7.6v-7h7.6v-8h7.8v8h10.8v7
	H243v12.2c0,1.6,0.8,2.4,2.4,2.4h7.8v7H244.6z M272.8,91.4c-2.6,0-4.8-0.4-6.6-1.4c-1.8-1-3.4-2.4-4.4-4c-1-1.8-1.6-3.8-1.6-6v-6.8
	c0-2.2,0.6-4.4,1.6-6c1-1.8,2.6-3,4.4-4s4-1.4,6.6-1.4s4.8,0.4,6.6,1.4c1.8,1,3.4,2.2,4.4,4s1.6,3.8,1.6,6V80c0,2.2-0.6,4.4-1.6,6
	c-1,1.8-2.4,3-4.4,4C277.6,91,275.4,91.4,272.8,91.4z M272.8,84.6c1.6,0,2.6-0.4,3.4-1.2c0.8-0.8,1.2-2,1.2-3.6V73
	c0-1.6-0.4-2.6-1.2-3.6c-0.8-0.8-2-1.2-3.4-1.2c-1.6,0-2.6,0.4-3.6,1.2c-0.8,0.8-1.2,2-1.2,3.6v7c0,1.4,0.4,2.6,1.2,3.6
	C270.2,84.2,271.4,84.6,272.8,84.6z M292,91V62.2h7.6v5.4h2.4l-2.4,1.8c0-2.4,0.6-4.4,2-5.8c1.4-1.4,3.2-2,5.6-2c2.8,0,5,1,6.6,3
	c1.8,2,2.6,4.6,2.6,7.8V91h-7.8V73.2c0-1.4-0.4-2.6-1.2-3.4c-0.8-0.8-1.8-1.2-3.2-1.2c-1.4,0-2.4,0.4-3.2,1.2
	c-0.8,0.8-1.2,2-1.2,3.4V91C299.8,91,292,91,292,91z"/>
</svg>
